<svg height="512pt" viewBox="0 0 511 512" width="512pt" xmlns="http://www.w3.org/2000/svg"><path d="m112.214844 242.21875c15.09375 10.464844 32.054687 19.726562 48.792968 27.578125 21.253907-103.070313 77.9375-196 159.703126-261.289063-20.558594-5.359374-41.996094-8.507812-64.210938-8.507812-63.707031 0-122.882812 23.644531-167.625 62.40625 20.011719 35.410156 31.625 76.652344 31.625 118.59375 0 21.15625-3.050781 41.617188-8.285156 61.21875zm0 0"/><path d="m189.339844 281.417969c28.914062 10.402343 59.660156 16.695312 91.496094 18.664062 14.222656-47.035156 44.390624-88.222656 87.050781-115.714843 36.59375-23.59375 79.273437-34.425782 121.9375-32.933594-26.503907-58.644532-75.378907-106.617188-134.828125-131.609375-86.273438 62.472656-145.484375 156.667969-165.65625 261.59375zm0 0"/><path d="m384.132812 209.578125c-34.070312 21.964844-58.847656 54.105469-71.96875 90.980469 73.410157-2.425782 143.421876-29.585938 198.445313-74.335938-1.765625-15.066406-4.777344-29.746094-9.058594-43.898437-41.121093-4.214844-82.527343 4.777343-117.417969 27.253906zm0 0"/><path d="m184.691406 311.410156c-1.929687 16.339844-3.191406 32.847656-3.191406 49.589844 0 50.214844 9.058594 100.097656 26.046875 146.175781 15.855469 3.097657 32.203125 4.824219 48.953125 4.824219 24.03125 0 47.203125-3.570312 69.261719-9.8125-33.933594-37.816406-54.261719-88.335938-54.261719-141.1875 0-10.574219 1.019531-20.960938 2.550781-31.222656-30.992187-2.332032-60.914062-8.652344-89.359375-18.367188zm0 0"/><path d="m86.351562 222.300781c2.707032-13.371093 4.148438-27.179687 4.148438-41.300781 0-33.910156-8.75-67.519531-23.832031-96.765625-17.496094 19.328125-32.078125 42.265625-43.042969 66.265625 17.453125 26.949219 38.507812 51.183594 62.726562 71.800781zm0 0"/><path d="m301.5 361c0 49.742188 21.023438 96.988281 55.46875 130.300781 88.792969-38.21875 152.476562-126.488281 155.1875-228.488281-59.199219 42.523438-132.066406 67.460938-207.832031 68.070312-1.667969 9.878907-2.824219 19.886719-2.824219 30.117188zm0 0"/><path d="m102.5 271.597656c-16.03125 38.894532-42.109375 72.625-74.84375 98.253906 29.488281 58.769532 81.925781 105.519532 144.601562 127.550782-13.660156-43.386719-20.757812-89.894532-20.757812-136.402344 0-20.578125 1.566406-40.878906 4.28125-60.882812-18.273438-8.070313-36.722656-17.625-53.28125-28.519532zm0 0"/><path d="m77.257812 253.394531c-25.03125-19.765625-47.40625-42.761719-66.453124-68.574219-6.589844 22.621094-10.304688 46.457032-10.304688 71.179688 0 29.988281 5.472656 58.652344 15.023438 85.398438 27.59375-23.304688 48.957031-53.632813 61.734374-88.003907zm0 0"/></svg>