<?xml version="1.0" encoding="UTF-8"?>
<svg viewBox="0 0 300 300" xmlns="http://www.w3.org/2000/svg">
 <path d="m246.53 8.4688c-11.842 0-21.469 9.5958-21.469 21.438s9.627 21.469 21.469 21.469 21.438-9.627 21.438-21.469-9.5958-21.438-21.438-21.438zm0.15625 5.625c8.6386 0 15.656 7.0176 15.656 15.656s-7.0176 15.625-15.656 15.625-15.625-6.9864-15.625-15.625 6.9864-15.656 15.625-15.656z"/>
 <path transform="matrix(1.2927 0 0 1.2927 34.197 -27.464)" d="m83.554 60.08a17.109 17.109 0 1 1 -34.218 0 17.109 17.109 0 1 1 34.218 0z"/>
 <path d="m165.27 54.308c24.357-13.46 44.583-32.778 64.926-51.456-5.4272 12.071-11.577 23.988-20.178 34.144-13.31 16.174-27.263 32.945-46.076 42.879-6.0195 3.7733-15.621-1.3712-14.003-8.9284 0.62098-8.3654 9.1603-12.577 15.33-16.638z" fill="#050505"/>
 <path d="m116.41 162.5c7.0378-2.0821 12.757 6.0997 11.503 12.524-0.27771 19.372-10.91 36.581-19.746 53.173-13.504 21.314-25.218 43.835-40.404 64.036 4.4811-17.344 10.424-34.279 14.727-51.673 5.8373-22.552 10.918-45.658 21.483-66.594 2.5703-5.0057 6.2461-10.911 12.437-11.466z" fill="#050505"/>
 <path d="m163.67 124.62c4.4212-1.7688 9.9611-1.3196 12.965 2.7094 4.4497 5.9661 5.0586 13.933 4.9073 21.116-3.986 31.869-24.324 58.228-44.609 81.825 5.1372-15.292 13.708-29.357 17.033-45.266 1.5032-6.2639 2.1954-12.673 3.1356-19.034-2.7569 2.6437-5.1516 5.8157-8.5056 7.7286-4.7904 1.8611-9.9151-1.1582-11.495-5.7181-3.1481-6.3008-1.5545-13.672 1.0564-19.864 5.2337-10.508 14.011-20.038 25.513-23.495z" fill="#050505"/>
 <path d="m68.355 100.37c7.6546-6.5227 15.9-14.562 26.703-14.344 5.5551-0.39368 10.218 5.9286 8.2449 11.131-1.204 4.6907-5.9971 6.8813-9.445 9.7203-16.222 10.872-33.071 21.136-47.095 34.883-9.2979 8.9416-16.651 19.891-27.269 27.433 10.232-26.501 28.094-49.653 48.86-68.824z" fill="#050505"/>
 <path d="m221.29 54.863c20.326-1.3871 40.752-1.3096 61.09-0.1364-1.4462 7.1379-3.8093 14.044-5.3778 21.151-1.4444 7.6987-1.9952 15.536-3.4804 23.228l-5.0357-0.13359c-0.60866-13.237 2.1392-26.268 5.8617-38.888-15.045-0.12691-30.088-0.09754-45.13-0.11647 3.3663 11.717 6.0161 23.765 5.7535 36.029 0.22262 2.5942-3.1705 2.7438-4.7892 3.9203-1.356-9.2762-1.8067-18.73-4.33-27.8-1.5171-5.7468-3.8101-11.323-4.5618-17.253z" fill="#050505"/>
</svg>
