<?xml version="1.0" encoding="UTF-8"?>
<svg viewBox="0 0 300 300" xmlns="http://www.w3.org/2000/svg">
 <g stroke-linejoin="round" stroke-width="1.2">
  <path d="m77.369 249.09a22.947 22.947 0 1 1 -45.894 0 22.947 22.947 0 1 1 45.894 0z"/>
  <path d="m242.83 50.221a21.716 21.716 0 1 1 -43.432 0 21.716 21.716 0 1 1 43.432 0z"/>
 </g>
 <path d="m71.953 69.535c27.678-2.6362 55.391-4.9105 83.105-7.1345 6.7805 0.074249 13.752-0.74292 20.374 1.089 4.2326 1.1335 8.5337 4.7056 8.3521 9.4403-0.43176 5.0272-5.546 8.0177-10.052 8.879-19.269 2.4327-38.595-0.56874-57.783-2.3315-16.993-1.8176-33.983-3.6678-50.975-5.4955-3.2069-0.32261-6.4268-0.63888-9.5592-1.4299 5.1539-2.3102 11.009-2.2903 16.539-3.017z"/>
 <path d="m231.06 90.93c-0.85571-5.5506 4.8521-9.7938 9.8926-9.8841 7.1448 1.1818 12.482 7.1933 15.632 13.372 3.5211 8.2152 6.886 16.623 8.2161 25.514 0.80643 5.9348-0.53101 12.592-5.1388 16.738-8.2946 7.0532-19.179 9.7731-29.652 11.673-8.6468 1.1713-17.329 2.4598-26.07 2.4757 0.29086-2.467 3.0084-3.1071 4.8972-4.0106 13.166-5.1055 26.498-10.477 37.718-19.252 0.96187-0.87296 2.6294-1.9546 1.9152-3.4959-1.4964-4.3082-4.4741-7.8995-6.6644-11.864-3.9266-6.8845-9.1511-13.329-10.747-21.266z"/>
 <path d="m152.46 127.58c4.382-1.878 9.8167-1.6276 13.656 1.3507 2.2892 1.908 2.1919 5.2521 1.4688 7.8806-2.859 9.3448-8.9231 17.252-15.263 24.518-6.0002 6.6514-12.193 13.14-18.78 19.214-3.4044 2.9964-6.9704 6.2526-11.582 7.125-4.172 1.1338-8.7844-1.1848-10.545-5.0869-0.62919-4.2907 1.0024-8.507 2.8711-12.286 3.6305-7.0823 8.3847-13.524 13.317-19.744 7.189-8.6519 14.633-17.823 24.858-22.972z"/>
 <path d="m176.13 147.08c5.091-2.4914 12.1-2.8576 16.402 1.3384 2.9148 3.6868 1.974 8.7684 0.61011 12.885-2.8446 7.7772-7.3847 14.848-12.524 21.298-28.036 32.557-60.26 61.102-91.229 90.772-0.80428 0.63345-1.6373 1.2292-2.4992 1.7871 1.8556-5.4622 5.2911-10.165 8.0986-15.15 19.436-31.323 39.097-62.539 60.368-92.657 6.111-7.4738 11.921-15.82 20.773-20.273z"/>
 <path d="m176.13 147.08c5.091-2.4914 12.1-2.8576 16.402 1.3384 2.9148 3.6868 1.974 8.7684 0.61011 12.885-2.8446 7.7772-7.3847 14.848-12.524 21.298-28.036 32.557-60.26 61.102-91.229 90.772-0.80428 0.63345-1.6373 1.2292-2.4992 1.7871 1.8556-5.4622 5.2911-10.165 8.0986-15.15 19.436-31.323 39.097-62.539 60.368-92.657 6.111-7.4738 11.921-15.82 20.773-20.273z" fill="none" stroke="#000" stroke-miterlimit="10" stroke-width=".1"/>
</svg>
