<?xml version="1.0" encoding="UTF-8"?>
<svg enable-background="new 0 0 300 300" viewBox="0 0 300 300" xmlns="http://www.w3.org/2000/svg">
 <path d="m196.68 33.944c8.201-1.016 17.006 3.075 21.124 10.326 3.046 5.26 4.376 11.791 2.069 17.591-3.089 11.074-16.137 17.815-26.963 14.008-9.955-2.87-16.67-13.839-14.826-24.007 1.566-9.176 9.326-16.758 18.596-17.918z" fill="none" stroke="#000" stroke-miterlimit="10" stroke-width=".1"/>
 <path d="m196.68 33.944c8.201-1.016 17.006 3.075 21.124 10.326 3.046 5.26 4.376 11.791 2.069 17.591-3.089 11.074-16.137 17.815-26.963 14.008-9.955-2.87-16.67-13.839-14.826-24.007 1.566-9.176 9.326-16.758 18.596-17.918z"/>
 <path d="m152.689,71.548c1.797-2.917 5.195-4.032 8.313-4.909 2.673,1.268 6.07,2.046 7.199,5.158 5.295,10.045.813,21.56 2.147,32.245 1.203,7.944 2.536,15.874 3.879,23.797 1.194,7.072 4.417,13.55 7.767,19.811 .869,1.485.117,4.948 3.097,3.881-3.511-3.913-5.548-9.007-6.833-14.057-3.855-13.474-2.594-27.815.364-41.333 1.081-5.153 2.82-10.888 7.634-13.747 5.285-3.294 12.012,1.923 12.476,7.52 .583,9.41-3.259,18.335-3.958,27.632-.688,8.488-2.229,17.027-1.222,25.552 1.372,9.473 4.773,18.582 9.512,26.877 .511,1.15 1.443,2.002 2.423,2.766 9.293,23.001 18.21,46.164 27.417,69.205 1.579,3.59 3.03,7.448 6.032,10.126 1.969,1.774 4.586,2.501 7.058,3.272 3.339-.082 5.324-2.539 7.463-4.698 1.962-1.622 4.189.272 4.878,2.202-1.539,4.676-6.16,8.631-11.291,8.016-8.49.802-15.405-5.781-18.768-12.955-8.188-21.189-16.668-42.267-24.951-63.42-1.078-2.533-1.849-5.213-3.215-7.608-4.736-2.957-9.934-5.233-14.131-9.019-11.525-9.956-22.408-21.359-28.531-35.517-5.641-12.652-7.182-26.598-8.266-40.264-.182-6.922-.534-14.518 3.507-20.533z" fill="none" stroke="#000" stroke-miterlimit="10" stroke-width=".1"/>
 <path d="m152.689,71.548c1.797-2.917 5.195-4.032 8.313-4.909 2.673,1.268 6.07,2.046 7.199,5.158 5.295,10.045.813,21.56 2.147,32.245 1.203,7.944 2.536,15.874 3.879,23.797 1.194,7.072 4.417,13.55 7.767,19.811 .869,1.485.117,4.948 3.097,3.881-3.511-3.913-5.548-9.007-6.833-14.057-3.855-13.474-2.594-27.815.364-41.333 1.081-5.153 2.82-10.888 7.634-13.747 5.285-3.294 12.012,1.923 12.476,7.52 .583,9.41-3.259,18.335-3.958,27.632-.688,8.488-2.229,17.027-1.222,25.552 1.372,9.473 4.773,18.582 9.512,26.877 .511,1.15 1.443,2.002 2.423,2.766 9.293,23.001 18.21,46.164 27.417,69.205 1.579,3.59 3.03,7.448 6.032,10.126 1.969,1.774 4.586,2.501 7.058,3.272 3.339-.082 5.324-2.539 7.463-4.698 1.962-1.622 4.189.272 4.878,2.202-1.539,4.676-6.16,8.631-11.291,8.016-8.49.802-15.405-5.781-18.768-12.955-8.188-21.189-16.668-42.267-24.951-63.42-1.078-2.533-1.849-5.213-3.215-7.608-4.736-2.957-9.934-5.233-14.131-9.019-11.525-9.956-22.408-21.359-28.531-35.517-5.641-12.652-7.182-26.598-8.266-40.264-.182-6.922-.534-14.518 3.507-20.533z"/>
 <path d="m90.353,114.561c.637-4.381 3.657-7.914 7.461-9.97 5.945.745 10.576,4.982 13.57,9.929 3.575,5.662 5.485,12.212 6.782,18.731 2.542-3.926.619-9.298 3.828-12.993 3.615-4.722 10.295-3.704 14.966-1.332 6.995,4.169 11.192,11.543 14.116,18.907 2.609,5.795 3.76,12.069 5.377,18.177 2.457,10.786 4.762,21.849 3.715,32.967-1.547,14.566-8.154,27.867-14.376,40.908-6.516,12.275-18.071,20.576-27.309,30.629-2.357,2.076-4.516,4.75-7.674,5.572 8.737-10.975 15.54-23.367 21.621-35.975 3.79-8.262 7.262-16.834 8.198-25.953 1.193-8.367-.089-16.809-1.308-25.092-2.484-15.437-14.714-26.858-18.466-41.853-.569-1.51-.166-4.637-2.59-3.846 2.328,9.636 2.552,19.692 1.592,29.525-.725,5.715-2.004,11.699-5.68,16.304-5.225,5.974-12.19,10.89-20.222,11.942-10.647,1.359-21.534-.056-31.746-3.242-5.977-1.802-12.345-3.66-16.75-8.367-2.187-2.421-5.306-4.164-6.626-7.235 8.699,1.606 17.171,5.027 26.161,4.544 10.754-.436 22.754-1.316 31.092-8.967 1.839-1.335 1.98-3.861 1.72-5.924-.911-6.317-1.759-12.669-3.494-18.826-2.164-9.328-5.732-18.86-3.958-28.56z" fill="none" stroke="#000" stroke-miterlimit="10" stroke-width=".1"/>
 <path d="m90.353,114.561c.637-4.381 3.657-7.914 7.461-9.97 5.945.745 10.576,4.982 13.57,9.929 3.575,5.662 5.485,12.212 6.782,18.731 2.542-3.926.619-9.298 3.828-12.993 3.615-4.722 10.295-3.704 14.966-1.332 6.995,4.169 11.192,11.543 14.116,18.907 2.609,5.795 3.76,12.069 5.377,18.177 2.457,10.786 4.762,21.849 3.715,32.967-1.547,14.566-8.154,27.867-14.376,40.908-6.516,12.275-18.071,20.576-27.309,30.629-2.357,2.076-4.516,4.75-7.674,5.572 8.737-10.975 15.54-23.367 21.621-35.975 3.79-8.262 7.262-16.834 8.198-25.953 1.193-8.367-.089-16.809-1.308-25.092-2.484-15.437-14.714-26.858-18.466-41.853-.569-1.51-.166-4.637-2.59-3.846 2.328,9.636 2.552,19.692 1.592,29.525-.725,5.715-2.004,11.699-5.68,16.304-5.225,5.974-12.19,10.89-20.222,11.942-10.647,1.359-21.534-.056-31.746-3.242-5.977-1.802-12.345-3.66-16.75-8.367-2.187-2.421-5.306-4.164-6.626-7.235 8.699,1.606 17.171,5.027 26.161,4.544 10.754-.436 22.754-1.316 31.092-8.967 1.839-1.335 1.98-3.861 1.72-5.924-.911-6.317-1.759-12.669-3.494-18.826-2.164-9.328-5.732-18.86-3.958-28.56z"/>
 <path d="m250.87 230.62c4.761 0 8.62 3.859 8.62 8.62s-3.859 8.62-8.62 8.62-8.62-3.859-8.62-8.62 3.859-8.62 8.62-8.62m0 6c-1.444 0-2.62 1.176-2.62 2.62s1.176 2.62 2.62 2.62 2.62-1.176 2.62-2.62-1.176-2.62-2.62-2.62z"/>
</svg>
