<?xml version="1.0" encoding="utf-8"?>
<svg xmlns="http://www.w3.org/2000/svg" height="256" width="256" viewBox="0 0 256 256">
  <g>
    <path id="path1" transform="rotate(0,128,128) translate(25,46.6300524294064) scale(6.43749616295328,6.43749616295328)  " fill="#000000" d="M26.161466,16.653L28.068475,19.962998C29.271474,22.371002 30.47545,22.671997 30.776475,22.671997 30.876449,22.570999 30.977462,22.471008 31.177475,22.471008 31.57945,22.371002 31.980451,22.671997 31.980451,23.072998 32.080455,23.473999 31.779462,23.775009 31.478468,23.876007L31.378463,23.876007C30.375474,24.175995 29.572467,23.775009 29.572467,23.775009 27.666467,23.173004 24.75748,17.255005 24.75748,17.255005z M17.033502,10.132004L17.033502,12.94101 20.443496,13.341995z M14.023501,4.5140078C15.026519,4.5140078 15.929502,4.9160005 16.631496,5.6179964 16.832513,5.8180086 17.033502,6.1190035 17.133508,6.3200075L24.857484,13.643006C25.259492,14.044007,25.359468,14.546005,25.259492,15.048004L25.259492,15.147995 25.259492,15.449005C25.158479,16.251007,24.456485,16.852997,23.553472,16.753006L15.327513,15.75C14.725495,15.650009,14.123507,15.048004,14.123507,14.345001L14.123507,14.244995 14.123507,12.841004 12.318519,14.546005 15.327513,17.154007C15.728513,17.455002,16.029508,17.856003,16.029508,18.458008L16.029508,23.775009C16.029508,24.578003 15.327513,25.279999 14.525514,25.279999 13.722507,25.279999 13.020513,24.578003 13.020513,23.775009L13.020513,18.960007 9.1085372,15.75 8.7065301,20.363999C8.7065301,20.865997,8.4055362,21.266998,7.9045306,21.468003L7.8035179,21.468003 7.8035179,21.568009C7.7035427,21.669007,7.6035366,21.768997,7.4025178,21.869003L2.3865414,24.778C1.5845415,25.279999 0.68155942,24.979004 0.17954653,24.277008 -0.22145311,23.574997 0.079540904,22.570999 0.78153471,22.169998L5.7975421,19.261002 6.1985422,12.238999C6.0985361,11.236008,6.4995361,10.132004,7.3025427,9.4300081L11.515513,5.5169985C12.318519,4.8150026,13.120519,4.5140078,14.023501,4.5140078z M18.738485,0C20.243484,1.8258379E-07 21.547496,1.2040026 21.547496,2.7089998 21.547496,4.2129976 20.34349,5.4170076 18.738485,5.4170076 17.233514,5.4170076 16.029508,4.2129976 16.029508,2.7089998 15.929502,1.2040026 17.233514,1.8258379E-07 18.738485,0z" />
  </g>
</svg>
