<?xml version="1.0" standalone="no"?><!DOCTYPE svg PUBLIC "-//W3C//DTD SVG 1.1//EN" "http://www.w3.org/Graphics/SVG/1.1/DTD/svg11.dtd"><svg class="icon" height="512" viewBox="0 0 1024 1024" version="1.1" xmlns="http://www.w3.org/2000/svg"><path d="M720.506483 412.144634 526.188403 803.343568C518.51345 818.794698 497.715661 831.907498 480.095037 831.907501L287.904964 831.907514C270.497162 831.907514 256 817.595574 256 799.940906L256 767.874125C256 750.072646 270.194765 735.907514 287.704895 735.907514L448 735.907514 632.791686 367.451712 720.506483 412.144634 720.506483 412.144634 720.506483 412.144634ZM734.742912 383.484016 782.323043 287.696239C791.04375 270.139811 784.08345 248.841604 766.587939 240.030261L742.316358 227.806252C724.905392 219.037487 703.76199 225.944158 695.139229 243.137066L647.137818 338.846992 734.742912 383.484016 734.742912 383.484016ZM384 671.907514C410.509667 671.907514 432 650.417184 432 623.907514 432 597.397846 410.509667 575.907514 384 575.907514 357.490333 575.907514 336 597.397846 336 623.907514 336 650.417184 357.490333 671.907514 384 671.907514L384 671.907514Z" /></svg>