<?xml version="1.0" encoding="UTF-8"?>
<svg enable-background="new 0 0 300 300" viewBox="0 0 300 300" xmlns="http://www.w3.org/2000/svg">
 <path d="m12.289,80.436c3.292-4.745 8.785-7.999 14.615-8.168 14.142-1.258 28.313,9.713 30.247,23.839 .607,3.048-.672,6.023-1.101,9.002 6,4.009 12.297,7.753 18.745,11.019 20.032,5.181 41.814,4.143 61.065-3.606 6.584-2.765 12.841-7.489 20.261-7.331 6.696.548 8.601,9.882 4.425,14.344-4.715,5.241-12.055,6.45-18.623,7.796-5.024.797-9.997,1.964-15.064,2.459-11.19.224-22.515.573-33.522-1.829-.035.842-.104,2.526-.14,3.369-3.077,1.816-6.145.039-8.727-1.75-7.073-4.303-14.162-8.587-21.446-12.527-3.731-2.02-6.904-4.915-10.739-6.767-3.729,3.045-8.449,5.039-13.313,4.937-11.382.249-22.322-6.978-27.075-17.233-2.264-5.538-2.468-12.197.392-17.554z" fill="none" stroke="#000" stroke-miterlimit="10" stroke-width=".1"/>
 <path d="m12.289,80.436c3.292-4.745 8.785-7.999 14.615-8.168 14.142-1.258 28.313,9.713 30.247,23.839 .607,3.048-.672,6.023-1.101,9.002 6,4.009 12.297,7.753 18.745,11.019 20.032,5.181 41.814,4.143 61.065-3.606 6.584-2.765 12.841-7.489 20.261-7.331 6.696.548 8.601,9.882 4.425,14.344-4.715,5.241-12.055,6.45-18.623,7.796-5.024.797-9.997,1.964-15.064,2.459-11.19.224-22.515.573-33.522-1.829-.035.842-.104,2.526-.14,3.369-3.077,1.816-6.145.039-8.727-1.75-7.073-4.303-14.162-8.587-21.446-12.527-3.731-2.02-6.904-4.915-10.739-6.767-3.729,3.045-8.449,5.039-13.313,4.937-11.382.249-22.322-6.978-27.075-17.233-2.264-5.538-2.468-12.197.392-17.554z"/>
 <path d="m25.53,78.66c11.92-2.254 24.575,7.27 25.642,19.378-.239,4.269-2.707,8.703-6.939,10.099-9.413,3.137-20.221-1.964-25.312-10.145-2.921-4.272-3.414-10.144-.967-14.737 1.87-2.377 4.619-3.998 7.576-4.595z" fill="none" stroke="#fff" stroke-miterlimit="10" stroke-width=".1"/>
 <path d="m25.53,78.66c11.92-2.254 24.575,7.27 25.642,19.378-.239,4.269-2.707,8.703-6.939,10.099-9.413,3.137-20.221-1.964-25.312-10.145-2.921-4.272-3.414-10.144-.967-14.737 1.87-2.377 4.619-3.998 7.576-4.595z" fill="#fff"/>
 <path d="m214.14 101.36c5.64-2.335 11.978-2.573 17.974-1.836 10.477 1.97 20.87 5.416 29.645 11.611 4.96 3.875 9.789 8.724 11.088 15.126 3.086 14.474-2.619 30.16-13.905 39.65-2.78 1.977-4.923 5.879-8.69 5.667 6.875-9.031 10.263-20.398 10.311-31.688 5e-3 -5.234-2.635-10.292-7.047-13.142-10.703-7.35-24.409-6.529-36.234-10.926-3.699-1.167-6.258-4.328-7.442-7.917-0.924-2.997 1.773-5.496 4.3-6.545z" fill="none" stroke="#000" stroke-miterlimit="10" stroke-width=".1"/>
 <path d="m214.14 101.36c5.64-2.335 11.978-2.573 17.974-1.836 10.477 1.97 20.87 5.416 29.645 11.611 4.96 3.875 9.789 8.724 11.088 15.126 3.086 14.474-2.619 30.16-13.905 39.65-2.78 1.977-4.923 5.879-8.69 5.667 6.875-9.031 10.263-20.398 10.311-31.688 5e-3 -5.234-2.635-10.292-7.047-13.142-10.703-7.35-24.409-6.529-36.234-10.926-3.699-1.167-6.258-4.328-7.442-7.917-0.924-2.997 1.773-5.496 4.3-6.545z"/>
 <path d="m206.591,160.853c3.589-7.113 14.757-6.396 18.925-.272 3.535,4.709 3.914,10.828 4.512,16.468 .955,13.415.115,27.341 5.024,40.12 4.245,9.896 13.774,15.988 23.126,20.457 10.726,5.433 22.539,8.01 33.722,12.25-2.38,2.905-6.612,1.395-9.782,1.065-11.38-2.558-22.757-5.128-34.135-7.681-10.074-2.482-20.65-6.707-26.668-15.64-8.186-15.088-13.767-31.597-16.365-48.567-.526-6.033-1.235-12.621 1.641-18.2z" fill="none" stroke="#000" stroke-miterlimit="10" stroke-width=".1"/>
 <path d="m206.591,160.853c3.589-7.113 14.757-6.396 18.925-.272 3.535,4.709 3.914,10.828 4.512,16.468 .955,13.415.115,27.341 5.024,40.12 4.245,9.896 13.774,15.988 23.126,20.457 10.726,5.433 22.539,8.01 33.722,12.25-2.38,2.905-6.612,1.395-9.782,1.065-11.38-2.558-22.757-5.128-34.135-7.681-10.074-2.482-20.65-6.707-26.668-15.64-8.186-15.088-13.767-31.597-16.365-48.567-.526-6.033-1.235-12.621 1.641-18.2z"/>
 <path d="m184.045,158.668c4.395-1.514 9.656-2.251 13.824.289 2.72,1.489 3.781,4.619 4.843,7.336 1.644,4.957-1.427,10.118-5.263,13.119-5.43,4.15-11.516,7.32-17.455,10.665-33.648,19.224-67.917,37.327-101.78,56.166-5.821,3.333-12.011,5.963-18.349,8.14-.462-.377-.923-.75-1.383-1.119 2.119-1.07 4.217-2.199 6.128-3.614 29.266-23.435 58.737-46.624 88.071-69.979 9.879-7.779 19.59-16.199 31.364-21.003z" fill="none" stroke="#000" stroke-miterlimit="10" stroke-width=".1"/>
 <path d="m184.045,158.668c4.395-1.514 9.656-2.251 13.824.289 2.72,1.489 3.781,4.619 4.843,7.336 1.644,4.957-1.427,10.118-5.263,13.119-5.43,4.15-11.516,7.32-17.455,10.665-33.648,19.224-67.917,37.327-101.78,56.166-5.821,3.333-12.011,5.963-18.349,8.14-.462-.377-.923-.75-1.383-1.119 2.119-1.07 4.217-2.199 6.128-3.614 29.266-23.435 58.737-46.624 88.071-69.979 9.879-7.779 19.59-16.199 31.364-21.003z"/>
 <path d="m35.406 124.31c4.988 0 9.031 4.043 9.031 9.031s-4.043 9.031-9.031 9.031-9.031-4.043-9.031-9.031 4.043-9.031 9.031-9.031m0 6c-1.671 0-3.031 1.36-3.031 3.031s1.36 3.031 3.031 3.031 3.031-1.36 3.031-3.031-1.359-3.031-3.031-3.031z"/>
 <path d="m192.15 74.676a21.699 21.699 0 1 0 -43.398 0 21.699 21.699 0 1 0 43.398 0"/>
</svg>
